# xmcd CD database file
#
# Track frame offsets:
#	150
#	18825
#	47962
#	53135
#
# Disc length: 994 seconds
#
# Revision: 3
# Processed by: cddbd v1.5.2PL0 Copyright (c) Steve Scherf et al.
# Submitted via: CDex 1.70beta3
#
DISCID=2b03e004
DTITLE=L'Arc～en～Ciel - NEO UNIVERSE - finale
DYEAR=2000
DGENRE=Japanese Pop
TTITLE0=NEO UNIVERSE
TTITLE1=finale
TTITLE2=hole
TTITLE3=trick ～new wave of japanese heavy metal mix～
EXTD=YEAR: 2000
EXTT0=
EXTT1=
EXTT2=
EXTT3=
PLAYORDER=
